HIERARCHY
ROOT Hips
{
	OFFSET 0.000000 100.481300 0.000000
	CHANNELS 6 Xposition Yposition Zposition Xrotation Yrotation Zrotation
	JOINT Spine
	{
		OFFSET -0.279200 12.230698 -2.892100
		CHANNELS 3 Xrotation Yrotation Zrotation
		JOINT Spine1
		{
			OFFSET -0.325700 14.269203 -3.374200
			CHANNELS 3 Xrotation Yrotation Zrotation
			JOINT Spine2
			{
				OFFSET -0.372300 16.307602 -0.352600
				CHANNELS 3 Xrotation Yrotation Zrotation
				JOINT Neck
				{
					OFFSET -0.418800 17.814194 8.416900
					CHANNELS 3 Xrotation Yrotation Zrotation
					JOINT Head
					{
						OFFSET 0.000000 7.031097 3.806800
						CHANNELS 3 Xrotation Yrotation Zrotation
						JOINT HeadTop_End
						{
							OFFSET 0.000000 24.646606 12.978600
							CHANNELS 3 Xrotation Yrotation Zrotation
							End Site
							{
								OFFSET 0.000000 27.854965 0.000000
							}
						}
					}
				}
				JOINT LeftShoulder
				{
					OFFSET 16.952999 14.495407 -7.737500
					CHANNELS 3 Xrotation Yrotation Zrotation
					JOINT LeftArm
					{
						OFFSET 9.308998 -2.777710 0.208600
						CHANNELS 3 Xrotation Yrotation Zrotation
						JOINT LeftForeArm
						{
							OFFSET 29.972298 0.000000 0.000000
							CHANNELS 3 Xrotation Yrotation Zrotation
							JOINT LeftHand
							{
								OFFSET 26.026505 0.000000 0.000000
								CHANNELS 3 Xrotation Yrotation Zrotation
								JOINT LeftHandThumb1
								{
									OFFSET 12.240501 -7.147949 9.207150
									CHANNELS 3 Xrotation Yrotation Zrotation
									JOINT LeftHandThumb2
									{
										OFFSET 4.138618 -2.389435 2.389433
										CHANNELS 3 Xrotation Yrotation Zrotation
										JOINT LeftHandThumb3
										{
											OFFSET 2.726913 -1.574387 1.574386
											CHANNELS 3 Xrotation Yrotation Zrotation
											JOINT LeftHandThumb4
											{
												OFFSET 3.941010 -2.275345 2.275342
												CHANNELS 3 Xrotation Yrotation Zrotation
												End Site
												{
													OFFSET -0.005798 5.087799 0.009903
												}
											}
										}
									}
								}
								JOINT LeftHandIndex1
								{
									OFFSET 24.424698 -1.985611 5.953459
									CHANNELS 3 Xrotation Yrotation Zrotation
									JOINT LeftHandIndex2
									{
										OFFSET 6.426697 0.000000 0.000000
										CHANNELS 3 Xrotation Yrotation Zrotation
										JOINT LeftHandIndex3
										{
											OFFSET 5.337898 0.000000 0.000000
											CHANNELS 3 Xrotation Yrotation Zrotation
											JOINT LeftHandIndex4
											{
												OFFSET 4.409401 0.000000 0.000000
												CHANNELS 3 Xrotation Yrotation Zrotation
												End Site
												{
													OFFSET 0.000000 4.409363 0.014373
												}
											}
										}
									}
								}
								JOINT LeftHandMiddle1
								{
									OFFSET 23.810104 0.000000 0.000000
									CHANNELS 3 Xrotation Yrotation Zrotation
									JOINT LeftHandMiddle2
									{
										OFFSET 7.176498 0.000000 0.000000
										CHANNELS 3 Xrotation Yrotation Zrotation
										JOINT LeftHandMiddle3
										{
											OFFSET 6.774902 0.000000 0.000000
											CHANNELS 3 Xrotation Yrotation Zrotation
											JOINT LeftHandMiddle4
											{
												OFFSET 5.403328 0.000000 0.000000
												CHANNELS 3 Xrotation Yrotation Zrotation
												End Site
												{
													OFFSET -0.027702 5.403244 0.017414
												}
											}
										}
									}
								}
								JOINT LeftHandRing1
								{
									OFFSET 22.908401 -0.839279 -6.020567
									CHANNELS 3 Xrotation Yrotation Zrotation
									JOINT LeftHandRing2
									{
										OFFSET 6.337502 0.000000 0.000000
										CHANNELS 3 Xrotation Yrotation Zrotation
										JOINT LeftHandRing3
										{
											OFFSET 5.779297 0.000000 0.000000
											CHANNELS 3 Xrotation Yrotation Zrotation
											JOINT LeftHandRing4
											{
												OFFSET 4.965698 0.000000 0.000000
												CHANNELS 3 Xrotation Yrotation Zrotation
												End Site
												{
													OFFSET 0.000000 4.965668 0.016186
												}
											}
										}
									}
								}
								JOINT LeftHandPinky1
								{
									OFFSET 20.037003 -1.530319 -10.950146
									CHANNELS 3 Xrotation Yrotation Zrotation
									JOINT LeftHandPinky2
									{
										OFFSET 5.254700 0.000000 0.000000
										CHANNELS 3 Xrotation Yrotation Zrotation
										JOINT LeftHandPinky3
										{
											OFFSET 4.810204 0.000000 0.000000
											CHANNELS 3 Xrotation Yrotation Zrotation
											JOINT LeftHandPinky4
											{
												OFFSET 3.647202 0.000000 0.000000
												CHANNELS 3 Xrotation Yrotation Zrotation
												End Site
												{
													OFFSET 0.000000 3.647186 0.011889
												}
											}
										}
									}
								}
							}
						}
					}
				}
				JOINT RightShoulder
				{
					OFFSET -15.141001 14.495407 -7.737500
					CHANNELS 3 Xrotation Yrotation Zrotation
					JOINT RightArm
					{
						OFFSET -9.308998 -2.777710 0.208500
						CHANNELS 3 Xrotation Yrotation Zrotation
						JOINT RightForeArm
						{
							OFFSET -29.972300 0.000000 0.000000
							CHANNELS 3 Xrotation Yrotation Zrotation
							JOINT RightHand
							{
								OFFSET -26.026505 0.000000 0.000000
								CHANNELS 3 Xrotation Yrotation Zrotation
								JOINT RightHandThumb1
								{
									OFFSET -12.240601 -7.148026 9.207092
									CHANNELS 3 Xrotation Yrotation Zrotation
									JOINT RightHandThumb2
									{
										OFFSET -4.138618 -2.389435 2.389433
										CHANNELS 3 Xrotation Yrotation Zrotation
										JOINT RightHandThumb3
										{
											OFFSET -2.726974 -1.574417 1.574421
											CHANNELS 3 Xrotation Yrotation Zrotation
											JOINT RightHandThumb4
											{
												OFFSET -3.941010 -2.275345 2.275343
												CHANNELS 3 Xrotation Yrotation Zrotation
												End Site
												{
													OFFSET 0.005814 5.087799 0.009927
												}
											}
										}
									}
								}
								JOINT RightHandIndex1
								{
									OFFSET -24.424698 -1.985657 5.953444
									CHANNELS 3 Xrotation Yrotation Zrotation
									JOINT RightHandIndex2
									{
										OFFSET -6.426697 0.000000 0.000000
										CHANNELS 3 Xrotation Yrotation Zrotation
										JOINT RightHandIndex3
										{
											OFFSET -5.337898 0.000000 0.000000
											CHANNELS 3 Xrotation Yrotation Zrotation
											JOINT RightHandIndex4
											{
												OFFSET -4.409401 0.000000 0.000000
												CHANNELS 3 Xrotation Yrotation Zrotation
												End Site
												{
													OFFSET 0.000000 4.409363 0.014408
												}
											}
										}
									}
								}
								JOINT RightHandMiddle1
								{
									OFFSET -23.810097 0.000000 0.000000
									CHANNELS 3 Xrotation Yrotation Zrotation
									JOINT RightHandMiddle2
									{
										OFFSET -7.176498 0.000000 0.000000
										CHANNELS 3 Xrotation Yrotation Zrotation
										JOINT RightHandMiddle3
										{
											OFFSET -6.774902 0.000000 0.000000
											CHANNELS 3 Xrotation Yrotation Zrotation
											JOINT RightHandMiddle4
											{
												OFFSET -5.403328 0.000000 0.000000
												CHANNELS 3 Xrotation Yrotation Zrotation
												End Site
												{
													OFFSET 0.027702 5.403244 0.017457
												}
											}
										}
									}
								}
								JOINT RightHandRing1
								{
									OFFSET -22.908302 -0.839325 -6.020576
									CHANNELS 3 Xrotation Yrotation Zrotation
									JOINT RightHandRing2
									{
										OFFSET -6.337502 0.000000 0.000000
										CHANNELS 3 Xrotation Yrotation Zrotation
										JOINT RightHandRing3
										{
											OFFSET -5.779297 0.000000 0.000000
											CHANNELS 3 Xrotation Yrotation Zrotation
											JOINT RightHandRing4
											{
												OFFSET -4.965698 0.000000 0.000000
												CHANNELS 3 Xrotation Yrotation Zrotation
												End Site
												{
													OFFSET 0.000000 4.965668 0.016226
												}
											}
										}
									}
								}
								JOINT RightHandPinky1
								{
									OFFSET -20.037003 -1.530334 -10.950259
									CHANNELS 3 Xrotation Yrotation Zrotation
									JOINT RightHandPinky2
									{
										OFFSET -5.254700 0.000000 0.000000
										CHANNELS 3 Xrotation Yrotation Zrotation
										JOINT RightHandPinky3
										{
											OFFSET -4.810204 0.000000 0.000000
											CHANNELS 3 Xrotation Yrotation Zrotation
											JOINT RightHandPinky4
											{
												OFFSET -3.647202 0.000000 0.000000
												CHANNELS 3 Xrotation Yrotation Zrotation
												End Site
												{
													OFFSET 0.000000 3.647186 0.011917
												}
											}
										}
									}
								}
							}
						}
					}
				}
			}
		}
	}
	JOINT LeftUpLeg
	{
		OFFSET 15.427100 -6.655098 0.678600
		CHANNELS 3 Xrotation Yrotation Zrotation
		JOINT LeftLeg
		{
			OFFSET 4.081073 -39.591068 13.024000
			CHANNELS 3 Xrotation Yrotation Zrotation
			JOINT LeftFoot
			{
				OFFSET -4.081074 -37.707932 -15.979700
				CHANNELS 3 Xrotation Yrotation Zrotation
				JOINT LeftToeBase
				{
					OFFSET 5.346399 -15.068900 20.645000
					CHANNELS 3 Xrotation Yrotation Zrotation
					JOINT LeftToe_End
					{
						OFFSET 2.754700 0.931300 11.300900
						CHANNELS 3 Xrotation Yrotation Zrotation
						End Site
						{
							OFFSET 0.000000 11.669021 0.000000
						}
					}
				}
			}
		}
	}
	JOINT RightUpLeg
	{
		OFFSET -15.569500 -6.655098 0.678600
		CHANNELS 3 Xrotation Yrotation Zrotation
		JOINT RightLeg
		{
			OFFSET -4.081825 -39.591045 13.023800
			CHANNELS 3 Xrotation Yrotation Zrotation
			JOINT RightFoot
			{
				OFFSET 4.081824 -37.707954 -15.979600
				CHANNELS 3 Xrotation Yrotation Zrotation
				JOINT RightToeBase
				{
					OFFSET -5.346400 -15.068900 20.645000
					CHANNELS 3 Xrotation Yrotation Zrotation
					JOINT RightToe_End
					{
						OFFSET -2.754700 0.931300 11.300900
						CHANNELS 3 Xrotation Yrotation Zrotation
						End Site
						{
							OFFSET 0.000000 11.669021 0.000000
						}
					}
				}
			}
		}
	}
}
MOTION
Frames: 4
Frame Time: 0.033333
-8.448762 80.896339 -10.952111 -5.222670 -36.057638 3.029408 2.414961 0.029875 -1.426645 4.836117 -0.337352 1.117681 4.836118 -0.337362 1.117684 13.046331 0.928006 1.241606 -14.434343 7.529588 -6.645522 -0.000000 0.000000 -0.000000 0.915929 4.053815 -6.673905 23.800305 -39.147608 -40.797727 1.043450 -87.224931 1.132464 -34.489505 16.251604 14.032259 3.720229 -7.110405 8.228258 11.741295 32.668518 -9.270721 0.000000 0.000001 0.000006 0.000000 0.000001 -0.000002 3.765449 11.247344 -37.098261 0.167988 0.515832 -29.705620 -0.000009 0.000001 -0.000002 0.000001 0.000002 -0.000002 2.926730 12.167637 -54.993336 -0.327514 -1.691639 -21.175429 -0.000019 -0.000001 0.000000 -0.000000 -0.000002 0.000000 -4.696860 15.082060 -52.721557 -0.907286 -2.845272 -35.693530 0.000015 -0.000003 -0.000005 -0.000001 -0.000001 0.000000 0.399329 3.304011 -53.719236 -2.267833 -5.029637 -48.623980 0.000003 -0.000003 0.000001 -0.000000 0.000001 0.000001 0.722060 -4.195447 3.678325 45.432861 25.637614 25.865013 0.208483 80.080054 -0.356194 6.147414 -12.383007 9.855142 -15.113199 -1.551301 -4.840555 34.338605 -49.988679 15.196517 -0.000002 0.000007 0.000003 -0.000003 -0.000002 -0.000001 -7.211829 -1.203174 5.321216 0.062787 -0.501473 11.806478 -0.000001 -0.000000 0.000001 -0.000001 -0.000001 -0.000000 -1.323244 -2.094937 54.591803 -2.372954 3.342159 70.507408 -0.000000 0.000009 0.000003 0.000000 0.000001 -0.000001 1.796578 -0.648389 58.157401 -4.099105 5.760671 68.972097 0.000002 -0.000004 -0.000001 -0.000001 -0.000003 0.000001 -0.391562 4.812183 56.268662 -6.438810 9.227286 69.670518 -0.000005 0.000001 -0.000004 0.000001 0.000001 -0.000000 -20.506963 -9.743280 20.530164 27.649347 -3.540032 -2.057745 8.035581 20.869564 -24.445500 -0.481248 -0.026962 0.063701 -0.000000 0.000003 0.000000 -19.157970 -7.802102 -21.076705 52.191586 2.033305 2.892089 -29.023639 1.034204 4.423233 -2.664689 -0.104930 0.255005 0.000000 -0.000002 -0.000000 
-9.271723 81.121048 -11.832880 -5.513156 -36.422182 3.202680 2.516055 -0.108813 -1.532337 5.049342 -0.595505 1.081245 5.049345 -0.595524 1.081244 12.965143 1.105080 1.401142 -14.768495 8.518074 -6.775505 0.000000 -0.000000 0.000000 0.899043 4.420298 -6.195922 23.805224 -38.684323 -42.092451 0.728030 -86.260078 0.821757 -32.478465 16.132714 12.857666 3.439948 -7.443321 8.295732 11.677673 32.578886 -9.222984 0.000001 0.000003 0.000003 0.000001 0.000000 -0.000001 2.990864 11.055149 -36.518713 0.168297 0.516428 -29.693889 -0.000010 -0.000002 -0.000001 0.000000 0.000000 -0.000002 2.049956 11.661092 -54.469997 -0.324949 -1.684990 -21.090173 -0.000019 0.000000 0.000001 0.000002 0.000001 -0.000001 -5.294756 14.750017 -52.625989 -0.903045 -2.839380 -35.608061 0.000012 -0.000002 -0.000005 0.000001 0.000001 -0.000000 0.260097 3.219926 -53.963037 -2.275945 -5.036634 -48.711147 0.000005 0.000000 -0.000001 -0.000000 0.000001 -0.000000 0.674326 -4.915507 2.850467 49.568944 25.517855 25.581898 0.209413 81.156793 -0.363056 4.363337 -12.698389 10.717765 -15.307159 -1.215582 -5.121561 33.499527 -49.381691 14.642628 -0.000011 0.000005 0.000001 -0.000002 -0.000004 0.000000 -7.167090 -1.301154 4.640487 0.064959 -0.509891 12.037876 0.000001 -0.000001 -0.000001 0.000000 -0.000000 0.000000 -2.083986 -1.597506 52.167352 -2.096749 3.231137 65.692568 -0.000002 0.000011 0.000003 -0.000001 -0.000001 0.000004 1.445434 -0.478292 57.488261 -4.173412 5.788558 69.710714 0.000003 0.000002 -0.000002 -0.000002 -0.000000 0.000001 -0.302439 4.775090 55.410712 -6.611706 9.287967 70.743302 -0.000003 0.000001 -0.000007 0.000001 -0.000003 -0.000000 -20.198401 -10.447563 20.155653 27.373598 -3.863930 -2.176823 8.943135 22.541474 -22.361889 -0.123581 -0.026400 0.062900 0.000000 0.000001 -0.000000 -19.234887 -8.131216 -20.451355 52.265475 1.916481 2.868938 -28.969018 1.528865 3.523446 -2.701283 -0.104839 0.254909 0.000000 -0.000003 -0.000000 
-10.063648 81.473923 -12.743097 -5.843173 -36.667935 3.400075 2.641682 -0.254482 -1.657097 5.312826 -0.862313 1.022940 5.312826 -0.862287 1.022937 12.779415 1.287862 1.656359 -15.107948 9.461812 -6.729868 0.000000 0.000001 0.000000 0.884619 4.671122 -5.852771 23.643936 -38.160024 -43.182280 0.562443 -85.331718 0.659486 -29.843060 15.874591 11.555042 3.049947 -7.900972 8.431177 11.573886 32.431459 -9.146176 -0.000002 0.000002 0.000009 -0.000001 0.000000 -0.000001 2.257180 10.879346 -35.862595 0.171631 0.522016 -29.719693 -0.000011 -0.000003 -0.000002 -0.000003 0.000003 -0.000001 1.076703 11.091851 -53.811758 -0.319912 -1.671884 -20.933743 -0.000023 0.000001 -0.000002 -0.000001 0.000000 0.000002 -5.914106 14.446770 -52.388545 -0.894818 -2.827851 -35.441363 0.000011 -0.000003 -0.000004 0.000001 0.000002 -0.000001 0.044035 3.014953 -54.046822 -2.283773 -5.043343 -48.763801 0.000002 -0.000002 -0.000001 0.000001 0.000001 -0.000001 0.612054 -5.502790 1.965066 53.559389 25.974192 26.164648 0.209318 82.755877 -0.369357 0.896453 -13.116679 11.185949 -15.562743 -0.820066 -5.275212 32.696522 -48.782748 14.116760 -0.000007 0.000012 0.000002 -0.000002 -0.000003 -0.000001 -7.156654 -1.139648 4.183950 0.065259 -0.511046 12.069019 -0.000004 0.000001 0.000001 -0.000003 0.000000 -0.000000 -2.786607 -1.043060 49.795798 -1.822137 3.092464 60.717090 -0.000000 0.000006 0.000006 -0.000000 -0.000001 -0.000000 1.186750 -0.358909 56.843693 -4.240467 5.812785 70.374185 0.000003 0.000004 -0.000003 0.000001 0.000001 -0.000002 0.129641 4.497005 54.584877 -6.723384 9.325095 71.432878 -0.000006 0.000003 -0.000010 -0.000000 -0.000000 0.000000 -19.835829 -11.630341 19.303880 27.170081 -3.109846 -1.818045 10.471541 24.355935 -20.635308 -0.745650 -0.027381 0.064301 0.000000 0.000001 0.000000 -19.115565 -8.386019 -19.758993 52.072573 1.777546 2.831048 -28.739513 1.753852 2.659992 -2.732347 -0.104808 0.254824 -0.000000 0.000002 -0.000000 
-10.830453 82.023972 -13.701320 -6.102190 -36.734547 3.607162 2.789799 -0.406322 -1.796405 5.622716 -1.125523 0.982258 5.622716 -1.125504 0.982258 12.403525 1.456564 1.934400 -15.479789 10.335821 -6.660208 0.000000 -0.000000 0.000000 0.873813 4.832192 -5.620547 23.350738 -37.590923 -44.004160 0.479727 -84.529281 0.578785 -27.105609 15.459145 10.235506 2.530981 -8.508427 8.670490 11.378373 32.151514 -9.001960 -0.000002 0.000002 0.000008 -0.000000 0.000000 -0.000000 1.492738 10.702761 -35.062131 0.176204 0.529958 -29.667917 -0.000011 0.000000 -0.000002 -0.000000 0.000000 -0.000001 0.230389 10.606557 -53.107371 -0.315338 -1.659857 -20.800827 -0.000015 -0.000001 -0.000003 -0.000001 -0.000002 0.000002 -6.630588 14.085458 -52.080910 -0.888789 -2.819395 -35.319154 0.000010 -0.000002 -0.000007 0.000001 0.000000 0.000001 -0.220790 2.730104 -54.029043 -2.294059 -5.052145 -48.820768 0.000003 -0.000000 0.000001 -0.000000 -0.000000 0.000000 0.534368 -6.027940 0.986769 56.799443 26.266647 27.484895 0.215294 84.492377 -0.384393 -3.446050 -12.840319 11.301538 -15.925664 -0.307264 -5.304848 32.020108 -48.264569 13.677554 -0.000008 0.000011 0.000004 -0.000004 -0.000001 0.000001 -7.166205 -0.818540 3.907345 0.065180 -0.510731 12.060637 -0.000000 -0.000001 -0.000000 0.000002 -0.000000 -0.000001 -2.666247 -1.095655 44.983762 -1.576699 2.941426 56.056117 -0.000001 0.000007 0.000003 -0.000002 -0.000001 -0.000002 1.099914 -0.368666 55.891196 -4.323199 5.841468 71.189074 0.000002 0.000001 -0.000001 0.000001 -0.000000 -0.000003 0.921509 3.943453 53.571127 -6.783742 9.344551 71.804420 -0.000004 0.000002 -0.000004 0.000000 -0.000000 0.000001 -19.172071 -13.868972 18.204011 26.458520 -2.286033 -1.448322 13.634151 27.775384 -20.575796 -1.507603 -0.028609 0.066016 -0.000000 0.000000 -0.000000 -18.820911 -8.705567 -18.910900 51.437765 1.585575 2.763162 -28.272168 1.748002 1.812391 -2.755333 -0.104783 0.254767 0.000000 -0.000001 -0.000000 
